<?xml version="1.0" encoding="utf-8"?>
<!-- Generator: Adobe Illustrator 16.0.0, SVG Export Plug-In . SVG Version: 6.00 Build 0)  -->
<!DOCTYPE svg PUBLIC "-//W3C//DTD SVG 1.1//EN" "http://www.w3.org/Graphics/SVG/1.1/DTD/svg11.dtd">
<svg version="1.1" id="Capa_1" xmlns="http://www.w3.org/2000/svg" xmlns:xlink="http://www.w3.org/1999/xlink" x="0px" y="0px"
	 width="595.279px" height="583.471px" viewBox="0 132.55 595.279 583.471" enable-background="new 0 132.55 595.279 583.471"
	 xml:space="preserve">
<g>
	<path fill="#00CCFF" d="M593.373,404.881c-3.139-6.408-9.652-10.469-16.788-10.469h-35.288
		C539.729,255.658,426.39,143.26,287.273,143.26c-17.02,0-30.816,13.797-30.816,30.816s13.798,30.816,30.816,30.816
		c105.134,0,190.828,84.75,192.392,189.521h-35.216c-7.136,0-13.646,4.061-16.789,10.469c-3.139,6.407-2.357,14.044,2.015,19.682
		l66.066,85.219c3.542,4.566,8.996,7.239,14.775,7.239c5.777,0,11.232-2.673,14.774-7.239l66.066-85.22
		C595.732,418.923,596.513,411.286,593.373,404.881z"/>
	<path fill="#00CCFF" d="M287.273,598.651c-17.02,0-30.816,13.798-30.816,30.815v38.348c0,17.02,13.798,30.815,30.816,30.815
		c17.018,0,30.815-13.797,30.815-30.815v-38.348C318.089,612.449,304.291,598.651,287.273,598.651z"/>
	<path fill="#00CCFF" d="M151.532,237.881c5.707,9.884,16.065,15.412,26.715,15.412c5.229,0,10.529-1.333,15.382-4.136
		c14.738-8.511,19.788-27.356,11.276-42.097l-19.176-33.209c-8.509-14.738-27.358-19.79-42.098-11.277
		c-14.737,8.509-19.787,27.356-11.275,42.097L151.532,237.881z"/>
	<path fill="#00CCFF" d="M423.013,584.838c-8.512-14.738-27.358-19.79-42.097-11.275c-14.738,8.511-19.788,27.355-11.277,42.097
		l19.176,33.209c5.707,9.884,16.065,15.412,26.716,15.412c5.229,0,10.528-1.331,15.381-4.137
		c14.738-8.509,19.788-27.355,11.277-42.097L423.013,584.838z"/>
	<path fill="#00CCFF" d="M49.766,309.815l33.209,19.176c4.854,2.802,10.15,4.136,15.382,4.136c10.646,0,21.008-5.526,26.715-15.412
		c8.51-14.74,3.46-33.587-11.276-42.097l-33.209-19.176c-14.737-8.507-33.588-3.464-42.097,11.276
		C29.978,282.459,35.028,301.306,49.766,309.815z"/>
	<path fill="#00CCFF" d="M99.98,411.358c0-17.02-13.798-30.816-30.816-30.816H30.816C13.797,380.542,0,394.339,0,411.358
		c0,17.019,13.797,30.814,30.815,30.814h38.348C86.182,442.174,99.98,428.377,99.98,411.358z"/>
	<path fill="#00CCFF" d="M125.072,505.002c-8.511-14.738-27.358-19.79-42.097-11.276l-33.209,19.177
		c-14.738,8.511-19.788,27.354-11.276,42.097c5.707,9.886,16.065,15.412,26.715,15.412c5.229,0,10.529-1.332,15.382-4.136
		l33.209-19.177C128.531,538.589,133.581,519.742,125.072,505.002z"/>
	<path fill="#00CCFF" d="M193.629,573.559c-14.739-8.509-33.585-3.463-42.097,11.277l-19.176,33.209
		c-8.512,14.74-3.462,33.588,11.275,42.097c4.854,2.804,10.151,4.137,15.383,4.137c10.646,0,21.008-5.526,26.715-15.412
		l19.176-33.209C213.417,600.918,208.367,582.07,193.629,573.559z"/>
	<path fill="#00CCFF" d="M269.484,472.273c0-9.505-7.732-17.236-17.236-17.236h-35.028c0.284-0.337,0.578-0.674,0.879-1.013
		c2.289-2.577,7.891-7.959,16.654-15.994c9.189-8.434,15.395-14.748,18.967-19.308c5.385-6.854,9.391-13.545,11.902-19.885
		c2.562-6.461,3.862-13.35,3.862-20.477c0-12.784-4.631-23.64-13.763-32.264c-9.072-8.554-21.562-12.889-37.125-12.889
		c-14.144,0-26.154,3.702-35.699,11.003c-5.759,4.409-10.191,10.516-13.18,18.159c-2.018,5.163-1.495,11.069,1.396,15.796
		c2.893,4.729,7.914,7.88,13.43,8.433c0.614,0.062,1.228,0.093,1.831,0.093c7.765,0,14.688-4.937,17.23-12.284
		c0.797-2.303,1.851-4.133,3.137-5.444c2.708-2.759,6.354-4.103,11.151-4.103c4.875,0,8.518,1.27,11.131,3.88
		c2.605,2.607,3.874,6.41,3.874,11.628c0,4.847-1.731,9.9-5.146,15.026c-1.83,2.681-7.301,8.957-22.818,23.416
		c-16.255,15.081-26.892,26.939-32.508,36.246c-3.966,6.563-6.857,13.503-8.603,20.626c-0.819,3.354-0.065,6.833,2.069,9.552
		c2.133,2.714,5.333,4.271,8.783,4.271h77.57C261.753,489.51,269.484,481.776,269.484,472.273z"/>
	<path fill="#00CCFF" d="M371.392,471.719V459.83h1.777c9.114,0,16.53-7.417,16.53-16.532s-7.416-16.531-16.53-16.531h-1.777
		v-82.392c0-6.157-5.011-11.167-11.168-11.167h-12.955c-3.691,0-7.139,1.82-9.222,4.869l-59.924,87.719
		c-1.748,2.56-2.673,5.553-2.673,8.652v14.215c0,6.157,5.011,11.168,11.168,11.168h49.192v11.889c0,9.811,7.98,17.791,17.791,17.791
		C363.41,489.51,371.392,481.528,371.392,471.719z M335.812,426.767h-22.081l22.081-32.826V426.767z"/>
</g>
</svg>
