<?xml version="1.0" encoding="utf-8"?>
<!-- Generator: Adobe Illustrator 16.0.0, SVG Export Plug-In . SVG Version: 6.00 Build 0)  -->
<!DOCTYPE svg PUBLIC "-//W3C//DTD SVG 1.1//EN" "http://www.w3.org/Graphics/SVG/1.1/DTD/svg11.dtd">
<svg version="1.1" id="Capa_1" xmlns="http://www.w3.org/2000/svg" xmlns:xlink="http://www.w3.org/1999/xlink" x="0px" y="0px"
	 width="595.279px" height="621.062px" viewBox="0 0 595.279 621.062" enable-background="new 0 0 595.279 621.062"
	 xml:space="preserve">
<g>
	<g>
		<g>
			<path fill="#00CCFF" d="M249.747,556.979c-64.641-7.052-121.642-37.608-162.188-82.856
				C47.011,428.873,22.33,368.934,22.33,304.293c0-70.518,28.794-133.982,74.631-179.818c45.836-45.836,109.89-74.63,180.405-74.63
				c70.517,0,133.981,28.794,180.405,74.63c45.249,45.836,74.043,109.301,74.043,179.818c0,7.052,0,14.104-0.588,21.154
				c-0.587,7.053-1.175,14.104-2.352,21.155c-1.175,5.876,2.938,11.752,8.815,12.928c5.876,1.176,11.752-2.938,12.928-8.813
				c1.175-7.64,2.352-15.279,2.938-22.918c0.587-7.64,1.175-15.279,1.175-22.918c0-76.395-31.146-145.735-81.095-195.685
				c-49.949-49.95-119.291-81.095-195.685-81.095S132.217,59.246,82.267,109.196C31.145,158.558,0,227.9,0,304.293
				c0,70.517,26.443,135.745,71.104,185.105c44.073,48.774,106.362,82.271,176.292,89.909c5.877,0.588,11.753-3.524,12.341-9.989
				C260.324,563.442,256.211,557.566,249.747,556.979z"/>
			<path fill="#00CCFF" d="M255.624,496.451c-49.361-5.288-92.26-28.795-123.404-63.466
				c-28.795-31.731-46.425-72.866-49.361-118.115h27.619c5.876,0,11.165-4.701,11.165-11.165c0-5.876-4.701-11.165-11.165-11.165
				H82.858c2.938-49.362,23.505-93.436,56.413-125.755c32.908-32.908,76.98-53.476,125.755-56.414v27.619
				c0,5.876,4.701,11.165,11.166,11.165c5.876,0,11.165-4.701,11.165-11.165v-27.619c49.361,2.938,93.436,23.505,125.755,56.414
				c32.907,32.909,53.476,76.981,56.413,125.755h-27.619c-5.876,0-11.165,4.7-11.165,11.165c0,5.877,4.701,11.165,11.165,11.165
				h27.619c-0.588,11.166-2.351,21.742-4.701,32.907c-2.351,14.104-7.052,28.207-13.516,41.724
				c-2.938,5.289-0.588,12.341,5.289,14.69c5.288,2.938,12.34,0.587,14.689-5.289c7.053-14.69,12.93-30.558,16.454-46.424
				c3.526-15.866,5.289-32.32,5.289-48.773c0-59.353-24.094-113.416-63.465-152.786c-38.785-38.785-92.848-63.465-152.787-63.465
				c-59.352,0-113.414,24.093-152.786,63.465c-38.784,39.372-62.878,93.435-62.878,153.374c0,55.237,20.567,105.774,55.238,143.972
				s82.27,64.641,136.921,70.519c5.876,0.587,11.752-3.526,12.34-9.99C266.201,502.916,262.088,497.039,255.624,496.451z"/>
			<path fill="#00CCFF" d="M311.449,304.293c0-9.402-4.112-18.217-9.989-24.682c-3.525-3.525-8.228-6.463-13.517-8.227v-89.909
				c0-6.464-4.701-11.165-11.165-11.165c-5.876,0-11.165,4.701-11.165,11.165v89.909c-4.701,1.764-9.402,4.113-12.928,7.639
				l-0.588,0.588c-3.525,3.525-6.465,8.228-8.228,13.517h-66.99c-5.877,0-11.165,4.701-11.165,11.165
				c0,5.876,4.701,11.165,11.165,11.165h66.991c1.763,5.289,4.701,9.989,8.228,13.516c6.464,6.464,15.277,9.99,24.681,9.99
				s18.217-4.113,24.682-9.99C307.925,322.51,311.449,313.695,311.449,304.293z M286.181,313.107
				c-2.352,2.352-5.289,3.526-8.814,3.526s-7.052-1.176-8.813-3.526c-2.352-2.351-3.526-5.289-3.526-8.813
				c0-3.525,1.176-6.464,3.526-8.814c0,0,0,0,0.588-0.588c2.351-2.351,5.288-3.524,8.813-3.524s7.052,1.175,8.814,3.524
				c2.351,2.352,3.524,5.289,3.524,8.814C289.707,307.818,288.531,310.757,286.181,313.107z"/>
			<path fill="#00CCFF" d="M593.517,514.668c-1.175-3.525-2.938-7.051-5.876-9.989c-2.938-2.938-5.877-4.701-9.402-6.464
				c-3.525-1.176-7.052-1.764-11.165-1.764v-13.517c0-0.587,0-1.763,0-2.351c-0.588-3.525-1.176-6.464-2.351-9.402
				c-1.764-3.525-4.113-6.464-7.052-8.813c-2.939-2.351-6.464-4.113-10.578-5.288c-5.288,1.763-9.401,1.175-13.517,1.175
				c-1.175,0-2.351,0-3.524,0c1.763-2.938,3.524-5.876,4.701-8.228c0,0,0-0.588,0.588-0.588c2.938-5.289,5.288-9.401,7.639-13.516
				c1.176-2.352,2.351-5.289,2.938-7.641c0.588-2.938,1.175-5.288,1.175-8.227c0-4.114-1.175-8.228-3.525-12.341
				c-1.763-3.525-4.701-6.464-8.813-8.814c-3.526-2.351-7.053-4.7-10.578-5.877c-4.113-1.175-7.64-2.351-11.753-2.351
				c-6.464,0-11.752,1.764-17.041,4.701c-4.701,2.938-8.814,7.64-11.753,12.929c-12.342,21.742-22.33,39.959-29.971,54.062
				c-7.64,14.104-13.516,23.507-16.454,28.795c-2.938,4.701-5.876,9.989-7.052,15.278c-1.763,5.876-2.351,11.165-2.351,17.629
				c0,4.113,0.588,8.229,2.351,12.341c1.176,4.113,3.526,7.641,5.877,10.577c2.938,3.526,6.464,6.466,10.577,8.814
				c4.113,1.764,8.228,2.938,12.929,2.938h45.836v5.289c0,4.113,0.587,8.228,2.352,11.753c1.763,4.113,4.113,7.053,7.639,9.402
				c2.938,2.352,6.464,4.113,9.99,4.701c3.525,1.175,7.052,1.175,11.165,1.175c8.813,0,15.866-2.351,21.155-7.052
				c5.876-4.701,8.813-11.753,9.401-20.567c0-1.763,0-3.524,0-5.288h0.587c9.402,0,16.454-3.525,21.155-9.401
				c4.113-5.877,6.464-12.93,6.464-22.918C595.28,521.72,594.693,518.194,593.517,514.668z M569.425,536.999
				c-0.588,0.587-1.765,1.175-3.526,1.175h-11.165c-5.876,0-11.165,4.701-11.165,11.165c0,4.701,0,7.64,0,8.814
				c0,2.352,0,4.701,0,7.052s-0.588,3.525-1.175,4.7c-1.176,1.177-3.526,1.765-7.64,1.765h-0.589c-1.763,0-3.524,0-4.7-0.588
				c-1.175,0-1.764-0.588-2.352-1.177l-0.588-0.587c-0.587-0.588-0.587-1.763-0.587-2.938v-16.454
				c0-5.876-4.701-11.165-11.165-11.165H458.36c-1.175,0-2.351,0-3.524-0.588c-1.177-0.587-1.765-1.175-2.938-2.352
				c-1.176-1.763-1.763-2.938-2.351-4.7c-0.589-1.176-0.589-2.938-0.589-4.701c0-4.113,0.589-7.64,1.764-11.165
				c1.176-3.525,2.351-6.464,4.701-9.989l0.588-0.588c3.525-5.877,8.813-15.279,17.042-29.382
				c7.639-13.518,17.629-31.733,30.557-54.651c1.176-2.351,2.938-4.112,4.701-5.288c1.176-0.588,2.938-1.176,5.289-1.176
				c1.763,0,2.938,0,4.701,0.588c1.763,0.588,3.524,1.763,5.289,2.938c1.175,1.175,2.351,1.763,2.938,2.938v0.588
				c0,0.588,0,1.764-0.587,2.352c0,1.176-0.588,2.351-1.176,3.525c-1.764,3.525-4.113,7.64-7.053,12.341c0,0,0,0.588-0.587,0.588
				c-2.938,5.289-6.465,10.576-9.989,17.042c-4.701,7.639-7.641,12.928-9.402,15.865c-2.351,3.525-4.113,6.465-5.289,8.814
				l-13.516,24.093c-1.175,1.765-1.764,3.526-1.764,5.877c0,5.876,5.289,11.165,11.165,10.577l28.207-0.588
				c5.876,0,10.577-4.701,10.577-11.165v-19.979c0-0.588,0-0.588,0-1.177c0-3.524,0.588-6.464,1.765-7.639
				c1.175-1.176,2.938-1.176,5.876-1.176c2.351,0,4.7,0,5.876,0.588c1.176,0,1.764,0.588,1.764,0.588
				c0.587,0,0.587,0.587,0.587,1.175c0.588,0.588,0.588,1.764,0.588,2.352v24.094c-0.588,6.464,4.113,11.165,10.578,11.165h11.165
				c1.175,0,2.351,0,2.938,0.588c0.589,0,1.177,0.587,1.177,0.587c0.588,0.588,0.588,1.176,1.175,1.764
				c0.588,1.176,0.588,2.352,0.588,4.113C571.187,532.298,570.599,535.236,569.425,536.999z"/>
			<path fill="#00CCFF" d="M427.216,537.586c-2.938-3.525-5.877-5.876-9.402-7.64c-3.526-1.763-7.64-2.938-11.753-2.938
				c-0.588,0-0.588,0-2.938,0c-1.175,0-2.351,0-3.524,0c-1.176,0-2.352,0-2.938,0s-0.588,0-2.938,0c-0.588,0-1.175,0-1.763,0h-1.177
				h-4.112l3.525-2.938c1.764,0,4.113-1.763,5.876-2.938c1.764-1.176,3.526-2.938,5.289-4.701c1.764-1.764,4.113-4.114,7.052-7.052
				c2.938-2.938,5.876-5.877,7.64-8.229c2.351-2.938,4.114-5.288,5.289-7.639c1.176-1.764,2.351-4.114,3.525-7.052
				c1.176-2.352,2.352-5.289,2.938-8.229c1.176-2.938,1.764-6.464,2.351-9.988c0.588-3.526,0.588-7.053,0.588-9.99
				c0-20.567-7.64-37.609-23.506-49.949c-7.639-5.877-15.866-10.578-25.269-13.516c-8.814-2.938-18.806-4.114-29.382-4.114
				c-8.228,0-16.454,1.764-24.094,4.114c-7.64,2.938-14.69,6.464-21.742,11.753c-6.465,4.7-11.166,9.989-14.69,14.689
				c-4.114,5.877-5.877,12.341-5.877,18.218c0,4.112,0.588,7.64,2.351,11.753c1.176,3.524,3.526,7.052,5.877,9.989
				c2.938,2.938,5.876,5.876,9.989,7.053c3.526,1.763,7.641,2.351,11.753,2.351c10.577,0,19.394-3.526,25.856-9.99l0.587-0.588
				c2.938-2.351,5.289-4.701,7.64-5.876c1.764-1.176,3.526-1.176,5.289-1.176s3.525,0,4.701,0.588
				c1.175,0.588,2.351,1.175,3.525,1.763c0.588,0.588,1.176,0.588,1.176,1.177c0,0.588,0,0.588,0,1.763
				c0,0.588-0.588,1.763-1.763,3.524v0.589c-2.353,2.938-8.815,10.577-20.568,21.742l-0.587,0.587
				c-2.352,1.765-4.701,4.701-8.814,8.229c-4.701,4.113-8.814,8.227-13.517,11.753c-6.464,5.876-10.577,9.402-12.34,11.165
				c-3.525,2.938-5.289,4.701-5.877,5.289c0,0,0,0.587-0.588,0.587c-2.351,2.351-4.701,5.289-7.052,7.64
				c-2.351,2.938-4.113,5.877-5.289,8.228c-1.175,2.938-2.351,5.877-2.938,9.401c-0.587,3.526-1.176,6.466-1.176,9.99
				c0,9.402,2.938,17.629,8.814,23.506c2.938,3.525,6.464,5.876,10.578,7.64c4.113,1.764,8.228,2.352,12.928,2.352h0.587
				c11.754,0,22.331,0,32.32,0.587c12.929,0,21.155,0,24.682,0h28.795h0.588c4.112,0,7.64-0.587,11.165-1.763
				c0.588,0,0.588,0,1.175-0.588c3.525-1.175,6.465-3.525,9.402-5.876c2.938-2.938,5.288-6.464,7.052-11.165
				c1.176-4.114,1.764-8.229,1.764-12.93c0-3.524-0.588-7.639-1.764-11.165C431.328,544.051,429.566,540.524,427.216,537.586z
				 M413.112,566.381c-0.588,1.175-0.588,1.763-1.176,2.351c-0.587,0.588-1.175,1.175-1.763,1.175h-0.588
				c-1.176,0.589-2.352,0.589-3.525,0.589c-0.588,0-0.588,0-1.176,0h-28.794c-9.99,0-18.218,0-24.682,0
				c-9.401,0-19.979,0-31.732-0.589c-0.587,0-0.587,0-1.175,0c-1.764,0-2.938,0-4.113-0.587c-1.176-0.588-2.352-1.176-2.938-2.351
				c-1.763-2.351-2.938-4.701-2.938-8.814c0-2.351,0-4.113,0.588-5.289c0.588-1.763,0.588-2.938,1.175-4.112
				c0.588-1.176,1.764-2.938,2.938-4.701c1.176-1.764,2.938-3.526,4.7-5.289l0.589-0.588c0.588-0.588,2.351-2.351,5.289-4.701
				c4.7-4.113,8.227-7.639,12.34-10.577c5.877-5.289,10.578-9.401,13.516-12.341c3.526-2.938,6.464-5.876,8.814-8.227l0.588-0.589
				c12.341-12.341,19.979-20.566,22.918-25.269v-0.588c3.525-5.288,5.289-10.577,5.289-15.866c0-4.113-1.177-8.227-2.938-11.753
				c-1.763-3.525-4.113-6.464-7.639-8.813c-2.938-2.352-6.465-4.113-9.99-5.289c-3.526-1.176-7.052-1.764-11.165-1.764
				c-5.289,0-9.99,1.176-15.279,4.113c-4.112,2.351-8.227,5.289-12.928,9.402l-0.588,0.588c-2.351,2.351-5.876,3.524-10.577,3.524
				c-1.176,0-2.351,0-2.938-0.587c-0.588-0.588-1.764-1.176-2.352-1.763c-1.175-1.176-1.763-2.351-1.763-2.938
				c-0.588-1.176-0.588-2.351-0.588-4.112c0-2.352,0.588-4.114,2.351-6.465c1.764-2.938,5.289-5.876,9.402-9.401
				c4.701-4.114,9.99-6.465,15.866-8.815c5.289-1.763,11.165-2.938,17.63-2.938c8.227,0,15.277,0.587,22.33,2.938
				c6.464,2.352,12.928,5.289,18.217,9.402c9.99,8.228,15.278,18.805,15.278,32.908c0,2.351,0,4.701-0.589,6.464
				c-0.587,1.763-0.587,4.113-1.763,6.464c-0.588,2.351-1.763,4.701-2.351,6.464c-0.587,1.764-1.764,3.526-2.352,4.701
				c-0.588,1.176-1.763,2.351-2.938,4.114c-1.765,1.763-3.526,4.112-6.465,6.464c-2.352,2.351-4.701,4.701-7.053,7.052
				c-1.763,1.763-3.524,3.525-4.7,4.113s-2.938,2.351-5.877,5.289c-1.763,1.763-5.288,4.112-9.989,8.227l-17.041,14.104
				c-2.352,1.763-4.113,4.701-4.113,8.227c0,5.877,4.701,11.165,10.577,11.753c4.113,0,8.813,0,15.278,0
				c5.877,0,12.929,0,21.154-0.588c0.588,0,0.588,0,1.177,0h1.763c0.588,0,1.175,0,2.938,0c1.175,0,2.352,0,3.525,0s2.351,0,3.524,0
				c0.589,0,0.589,0,2.938,0c1.176,0,1.763,0,2.351,0.588c0.589,0.588,1.177,0.588,1.764,1.765c0.588,1.175,1.176,2.35,1.764,3.524
				c0.587,1.175,0.587,2.352,0.587,4.113C413.699,563.442,413.699,565.205,413.112,566.381z"/>
		</g>
	</g>
</g>
</svg>
