<?xml version="1.0" encoding="utf-8"?>
<!-- Generator: Adobe Illustrator 16.0.0, SVG Export Plug-In . SVG Version: 6.00 Build 0)  -->
<!DOCTYPE svg PUBLIC "-//W3C//DTD SVG 1.1//EN" "http://www.w3.org/Graphics/SVG/1.1/DTD/svg11.dtd">
<svg version="1.1" id="Layer_1" xmlns="http://www.w3.org/2000/svg" xmlns:xlink="http://www.w3.org/1999/xlink" x="0px" y="0px"
	 width="595.279px" height="628.468px" viewBox="0 0 595.279 628.468" enable-background="new 0 0 595.279 628.468"
	 xml:space="preserve">
<g>
	<g>
		<g>
			<path fill="#00CCFF" d="M297.64,459.857c78.873,0,116.169-80.455,133.641-149.027H297.64V459.857z"/>
			<path fill="#00CCFF" d="M164.061,310.812H297.64V163.123l-147.882,62.935C151.159,242.179,154.886,274.865,164.061,310.812z"/>
			<path fill="#00CCFF" d="M297.634,13.188c-164.375,0-297.628,133.266-297.628,297.636c0,164.367,133.253,297.645,297.628,297.645
				c164.376,0,297.641-133.27,297.641-297.645C595.274,146.445,462.011,13.188,297.634,13.188z M477.126,216.814
				c-0.47,11.184-13.441,273.92-179.485,273.92c-166.047,0-179.021-262.732-179.488-273.92l-0.449-10.674l179.935-76.579
				L477.58,206.14L477.126,216.814z"/>
		</g>
	</g>
</g>
</svg>
