<?xml version="1.0" encoding="utf-8"?>
<!-- Generator: Adobe Illustrator 16.0.0, SVG Export Plug-In . SVG Version: 6.00 Build 0)  -->
<!DOCTYPE svg PUBLIC "-//W3C//DTD SVG 1.1//EN" "http://www.w3.org/Graphics/SVG/1.1/DTD/svg11.dtd">
<svg version="1.1" id="Capa_1" xmlns="http://www.w3.org/2000/svg" xmlns:xlink="http://www.w3.org/1999/xlink" x="0px" y="0px"
	 width="595.279px" height="640.468px" viewBox="0 0 595.279 640.468" enable-background="new 0 0 595.279 640.468"
	 xml:space="preserve">
<path fill="#00CCFF" d="M543.24,88.616c-0.956-6.339-5.831-11.377-12.138-12.538L300.364,33.555c-1.804-0.331-3.646-0.331-5.45,0
	L64.175,76.078c-6.307,1.161-11.182,6.198-12.138,12.538c-0.986,6.52-23.569,161.219,21.816,295.045
	c45.93,135.432,208.91,238.332,215.827,242.645c2.435,1.52,5.196,2.279,7.952,2.279c2.758,0,5.521-0.758,7.953-2.279
	c6.918-4.312,169.897-107.213,215.834-242.645C566.812,249.835,544.226,95.135,543.24,88.616z M297.64,326.175H105.851
	c-22.567-100.438-6.851-202.634-6.851-202.634l198.64-35.89V326.175z M478.036,366.597
	C439.526,477.925,297.64,564.701,297.64,564.701V326.175h191.789C486.376,339.767,482.627,353.328,478.036,366.597z"/>
</svg>
