<?xml version="1.0" encoding="utf-8"?>
<!-- Generator: Adobe Illustrator 16.0.0, SVG Export Plug-In . SVG Version: 6.00 Build 0)  -->
<!DOCTYPE svg PUBLIC "-//W3C//DTD SVG 1.1//EN" "http://www.w3.org/Graphics/SVG/1.1/DTD/svg11.dtd">
<svg version="1.1" id="Capa_1" xmlns="http://www.w3.org/2000/svg" xmlns:xlink="http://www.w3.org/1999/xlink" x="0px" y="0px"
	 width="595.279px" height="622.469px" viewBox="0 0 595.279 622.469" enable-background="new 0 0 595.279 622.469"
	 xml:space="preserve">
<g>
	<path fill="#00CCFF" d="M297.64,147.553c10.512,0,19.017-8.514,19.017-19.018V68.787c0-10.502-8.507-19.019-19.017-19.019
		c-10.512,0-19.019,8.516-19.019,19.019v59.747C278.622,139.039,287.129,147.553,297.64,147.553z"/>
	<path fill="#00CCFF" d="M139.572,192.981c3.769,4.485,9.156,6.797,14.598,6.797c4.309,0,8.637-1.457,12.202-4.448
		c8.041-6.75,9.101-18.738,2.358-26.791l-38.391-45.771c-6.741-8.043-18.721-9.11-26.8-2.348c-8.042,6.75-9.101,18.738-2.357,26.791
		L139.572,192.981z"/>
	<path fill="#00CCFF" d="M77.855,332.015c9.062,0,17.086-6.48,18.701-15.712c1.838-10.346-5.068-20.207-15.416-22.035
		l-58.818-10.392c-10.324-1.801-20.206,5.08-22.025,15.423c-1.837,10.348,5.069,20.207,15.416,22.037l58.818,10.392
		C75.644,331.922,76.758,332.015,77.855,332.015z"/>
	<path fill="#00CCFF" d="M572.958,283.895L514.1,294.266c-10.343,1.821-17.252,11.69-15.413,22.026
		c1.614,9.23,9.638,15.721,18.702,15.721c1.096,0,2.21-0.091,3.325-0.286l58.855-10.371c10.345-1.821,17.252-11.693,15.416-22.026
		C593.164,288.975,583.302,282.064,572.958,283.895z"/>
	<path fill="#00CCFF" d="M441.073,199.808c5.441,0,10.828-2.312,14.58-6.79l38.388-45.743c6.762-8.053,5.703-20.049-2.339-26.8
		c-8.06-6.752-20.058-5.674-26.781,2.339l-38.39,45.744c-6.759,8.053-5.701,20.049,2.34,26.8
		C432.438,198.348,436.765,199.808,441.073,199.808z"/>
	<rect x="48.436" y="500.596" fill="#00CCFF" width="498.408" height="91.525"/>
	<path fill="#00CCFF" d="M297.64,172.534c-98.473,0-178.296,79.825-178.296,178.294v121.715h99.604h234.979h22.008V350.828
		C475.935,252.357,396.111,172.534,297.64,172.534z M157.381,434.506v-83.678c0-73.76,57.277-134.277,129.674-139.721
		c-41.381,32.604-68.105,82.937-68.105,139.721v83.678H157.381L157.381,434.506z"/>
</g>
</svg>
