<?xml version="1.0" encoding="utf-8"?>
<!-- Generator: Adobe Illustrator 16.0.0, SVG Export Plug-In . SVG Version: 6.00 Build 0)  -->
<!DOCTYPE svg PUBLIC "-//W3C//DTD SVG 1.1//EN" "http://www.w3.org/Graphics/SVG/1.1/DTD/svg11.dtd">
<svg version="1.1" id="Layer_1" xmlns="http://www.w3.org/2000/svg" xmlns:xlink="http://www.w3.org/1999/xlink" x="0px" y="0px"
	 width="595.279px" height="634.468px" viewBox="0 0 595.279 634.468" enable-background="new 0 0 595.279 634.468"
	 xml:space="preserve">
<g id="XMLID_511_">
	<g>
		<path fill="#00CCFF" d="M571.013,323.818c15.776-19.68,22.575-45.479,17.976-70.848c-4.812-26.545-21.104-48.797-44.056-61.405
			c7.509-26.175,2.578-54.897-14.158-77.219c-16.556-22.075-42.923-35.255-70.533-35.255c-3.917,0-7.812,0.261-11.671,0.78
			c-13.555-31.95-45.235-53.683-81.075-53.683c-28.423,0-53.74,13.53-69.855,34.489c-16.115-20.958-41.435-34.489-69.856-34.489
			c-35.854,0-67.549,21.752-81.094,53.726c-3.867-0.518-7.775-0.777-11.712-0.777c-28.024,0-53.724,12.842-70.503,35.238
			c-16.725,22.322-21.649,51.041-14.144,77.213c-22.953,12.606-39.242,34.863-44.054,61.425
			c-4.589,25.361,2.213,51.152,17.986,70.826C8.487,343.517,1.689,369.316,6.289,394.687c4.813,26.545,21.104,48.797,44.056,61.404
			c-7.511,26.176-2.578,54.898,14.156,77.219c16.559,22.076,42.925,35.256,70.534,35.256c3.915,0,7.812-0.262,11.67-0.779
			c13.556,31.949,45.236,53.682,81.077,53.682c28.421,0,53.74-13.529,69.856-34.488c16.115,20.959,41.434,34.488,69.855,34.488
			c35.855,0,67.551-21.752,81.094-53.725c3.867,0.518,7.775,0.775,11.713,0.775c28.023,0,53.725-12.844,70.504-35.236
			c16.723-22.322,21.646-51.041,14.141-77.213c22.954-12.607,39.241-34.863,44.059-61.426
			C593.59,369.281,586.787,343.49,571.013,323.818z M279.416,533.39c0,28.471-23.164,51.633-51.634,51.633
			c-24.666,0-45.97-17.555-50.656-41.74l-0.248-1.279c-0.474-2.828-0.725-5.719-0.725-8.611c0-8.408,2.007-16.504,5.772-23.756
			c13.701,8.416,29.488,12.93,45.976,12.928l-0.003-36.445c-13.792,0.002-26.759-5.369-36.511-15.123
			c-9.752-9.75-15.122-22.713-15.123-36.504l-36.445,0.004c0.001,17.863,5.298,34.91,15.125,49.365
			c-9.623,14.088-14.913,30.65-15.201,48.037c-1.562,0.146-3.132,0.225-4.707,0.225c-16.439,0-31.521-7.537-41.376-20.676
			c-12.126-16.174-13.678-38.088-3.952-55.828l4.328-7.895l-7.368-16.789l-8.18-2.396c-18.904-5.535-32.827-20.998-36.337-40.354
			c-3.072-16.945,2.553-34.205,14.736-46.135h84.714c3.468,16.572,11.646,31.803,23.896,44.055
			c15.979,15.92,38,25.801,62.285,25.801h51.632L279.416,533.39L279.416,533.39z M279.416,375.458h-51.632
			c-27.493,0-50.031-21.604-51.545-48.727c-0.005-0.09-0.015-0.178-0.021-0.27c-0.044-0.873-0.065-1.752-0.065-2.635
			c0-13.791,5.372-26.757,15.123-36.508l-25.771-25.773c-12.253,12.252-20.434,27.483-23.903,44.057H56.866
			c-12.169-11.924-17.789-29.172-14.728-46.1c3.51-19.365,17.433-34.832,36.336-40.366l8.183-2.395l7.365-16.791l-4.327-7.892
			c-9.726-17.741-8.178-39.658,3.943-55.835c9.832-13.122,24.897-20.646,41.335-20.646c1.6,0,3.188,0.079,4.769,0.225
			c0.297,17.371,5.585,33.915,15.199,47.99c-9.827,14.456-15.124,31.5-15.125,49.366l36.446,0.005
			c0.001-13.792,5.371-26.754,15.121-36.505c9.754-9.752,22.719-15.123,36.509-15.123c0.004,0,0.006-36.446,0.006-36.446
			c-16.489,0-32.272,4.513-45.975,12.928c-3.767-7.254-5.771-15.35-5.771-23.757c0-2.883,0.25-5.764,0.72-8.581l0.254-1.309
			c4.687-24.188,25.991-41.743,50.655-41.743c28.47,0,51.634,23.162,51.634,51.632V375.458z M315.862,114.268
			c0-28.473,23.162-51.634,51.634-51.634c24.665,0,45.97,17.555,50.657,41.743l0.244,1.262c0.475,2.833,0.729,5.728,0.729,8.627
			c0,8.408-2.007,16.503-5.774,23.756c-13.701-8.416-29.488-12.93-45.974-12.929l0.003,36.446
			c13.792-0.001,26.757,5.37,36.511,15.124c9.751,9.748,15.12,22.713,15.123,36.504l36.445-0.005
			c-0.003-17.866-5.3-34.912-15.125-49.366c9.622-14.087,14.911-30.649,15.199-48.037c1.562-0.145,3.132-0.222,4.709-0.222
			c16.44,0,31.521,7.536,41.376,20.674c12.125,16.173,13.679,38.088,3.951,55.829l-4.337,7.913l3.663,8.245l3.718,8.527l8.181,2.396
			c18.903,5.536,32.825,20.998,36.335,40.354c3.072,16.945-2.553,34.207-14.737,46.133h-84.714
			c-3.468-16.571-11.647-31.803-23.898-44.055c-15.979-15.92-38.001-25.799-62.286-25.799h-51.631L315.862,114.268L315.862,114.268z
			 M553.138,388.148c-3.511,19.367-17.435,34.834-36.335,40.367l-8.163,2.391l-7.376,16.814l4.315,7.873
			c9.727,17.74,8.178,39.656-3.941,55.834c-9.833,13.123-24.898,20.648-41.337,20.646c-1.6,0-3.188-0.078-4.769-0.225
			c-0.296-17.371-5.586-33.916-15.198-47.99c9.826-14.455,15.122-31.5,15.127-49.365l-36.446-0.004
			c-0.002,13.791-5.372,26.754-15.124,36.504c-9.75,9.752-22.715,15.123-36.506,15.123c-0.004,0-0.006,36.445-0.006,36.445
			c16.488,0,32.272-4.514,45.974-12.928c3.768,7.252,5.774,15.348,5.774,23.756c0,2.896-0.254,5.793-0.729,8.627l-0.246,1.266
			c-4.688,24.186-25.994,41.738-50.658,41.738c-28.472,0-51.634-23.16-51.634-51.631V272.196h51.632
			c27.493,0,50.031,21.603,51.545,48.726c0.006,0.09,0.016,0.18,0.021,0.27c0.044,0.875,0.065,1.752,0.065,2.637
			c0,13.793-5.37,26.758-15.124,36.508l25.77,25.771c12.253-12.252,20.437-27.482,23.906-44.057h84.735
			C550.579,353.976,556.2,371.222,553.138,388.148z"/>
	</g>
</g>
</svg>
