<?xml version="1.0" encoding="utf-8"?>
<!-- Generator: Adobe Illustrator 16.0.0, SVG Export Plug-In . SVG Version: 6.00 Build 0)  -->
<!DOCTYPE svg PUBLIC "-//W3C//DTD SVG 1.1//EN" "http://www.w3.org/Graphics/SVG/1.1/DTD/svg11.dtd">
<svg version="1.1" id="Capa_1" xmlns="http://www.w3.org/2000/svg" xmlns:xlink="http://www.w3.org/1999/xlink" x="0px" y="0px"
	 width="595.279px" height="604px" viewBox="0 0 595.279 604" enable-background="new 0 0 595.279 604" xml:space="preserve">
<g>
	<g>
		<g>
			<path fill="#00CCFF" d="M99.315,51.182c-39.593,0-71.703,32.102-71.703,71.71c0,39.6,32.109,71.702,71.703,71.702
				c39.607,0,71.702-32.102,71.702-71.702C171.017,83.283,138.924,51.182,99.315,51.182z M218.824,75.085v47.807h286.812v262.914
				H218.824v19.887c-0.429,2.581-0.429,5.211,0,7.792v20.121h310.723h23.894c13.204,0.184,24.056-10.365,24.245-23.562
				c0.19-13.203-10.358-24.055-23.562-24.237c-0.238-0.008-0.462-0.008-0.686,0V98.989c0-13.203-10.691-23.904-23.894-23.904
				H218.824L218.824,75.085z M75.42,242.393c-26.404,0-47.807,21.394-47.807,47.808v143.403h143.404V314.095
				c0-13.194,10.708-23.895,23.912-23.895h23.896h95.614c13.188,0.182,24.038-10.367,24.229-23.57
				c0.188-13.194-10.358-24.046-23.562-24.237c-0.223,0-0.445,0-0.667,0h-95.614h-71.702H75.42z M75.42,481.403
				c-26.404,0-47.807,21.399-47.807,47.807c0,26.397,21.401,47.799,47.807,47.799c26.406,0,47.809-21.399,47.809-47.799
				C123.226,502.805,101.825,481.403,75.42,481.403z M218.824,481.403c-26.406,0-47.807,21.399-47.807,47.807
				c0,26.397,21.399,47.799,47.807,47.799s47.807-21.399,47.807-47.799C266.631,502.805,245.23,481.403,218.824,481.403z
				 M362.229,481.403c-26.391,0-47.791,21.399-47.791,47.807c0,26.397,21.4,47.799,47.791,47.799
				c26.405,0,47.807-21.399,47.807-47.799C410.035,502.805,388.635,481.403,362.229,481.403z M505.635,481.403
				c-26.393,0-47.792,21.399-47.792,47.807c0,26.397,21.399,47.799,47.792,47.799c26.402,0,47.805-21.399,47.805-47.799
				C553.439,502.805,532.038,481.403,505.635,481.403z"/>
		</g>
	</g>
</g>
</svg>
